<!DOCTYPE svg PUBLIC "-//W3C//DTD SVG 1.1//EN" "http://www.w3.org/Graphics/SVG/1.1/DTD/svg11.dtd">
<!-- Uploaded to: SVG Repo, www.svgrepo.com, Transformed by: SVG Repo Mixer Tools -->
<svg width="64px" height="64px" viewBox="0 0 512.00 512.00" xmlns="http://www.w3.org/2000/svg" fill="#ffffff">
<g id="SVGRepo_bgCarrier" stroke-width="0"/>
<g id="SVGRepo_tracerCarrier" stroke-linecap="round" stroke-linejoin="round"/>
<g id="SVGRepo_iconCarrier"> <path fill="var(--ci-primary-color, #fff)" d="M441.884,109.647A32.029,32.029,0,0,0,415.669,96H48a32.036,32.036,0,0,0-32,32V376H57.082a67.982,67.982,0,0,0,133.836,0H313.082a67.982,67.982,0,0,0,133.836,0H496V194.521a23.886,23.886,0,0,0-4.338-13.763ZM180,128H324v96H180ZM48,128H148v96H48Zm76,272a36,36,0,1,1,36-36A36.04,36.04,0,0,1,124,400Zm256,0a36,36,0,1,1,36-36A36.04,36.04,0,0,1,380,400Zm84-56H444.994a68,68,0,0,0-129.988,0H188.994a68,68,0,0,0-129.988,0H48V256H464Zm0-120H356V128h59.669L464,197.043Z" class="ci-primary"/> </g>
</svg>