<!DOCTYPE svg PUBLIC "-//W3C//DTD SVG 1.1//EN" "http://www.w3.org/Graphics/SVG/1.1/DTD/svg11.dtd">
<!-- Uploaded to: SVG Repo, www.svgrepo.com, Transformed by: SVG Repo Mixer Tools -->
<svg width="64px" height="64px" viewBox="0 0 512 512" xmlns="http://www.w3.org/2000/svg" fill="#fff" stroke="#fff">
<g id="SVGRepo_bgCarrier" stroke-width="0"/>
<g id="SVGRepo_tracerCarrier" stroke-linecap="round" stroke-linejoin="round"/>
<g id="SVGRepo_iconCarrier"> <path fill="var(--ci-primary-color, #fff)" d="M475.656,223.142l-90.272-13.908-55.013-89.87a32.07,32.07,0,0,0-27.548-15.291L72.265,105.91A32.018,32.018,0,0,0,42.2,127.684L16,205.375V384H71.006a68,68,0,0,0,129.988,0H303.006a68,68,0,0,0,129.988,0H496V246.862A23.873,23.873,0,0,0,475.656,223.142ZM224,136.7l79.078-.63,44.1,72.047L224,208.074ZM72.521,137.908,192,136.956v71.107l-143.119-.051ZM136,400a36,36,0,1,1,36-36A36.04,36.04,0,0,1,136,400Zm232,0a36,36,0,1,1,36-36A36.04,36.04,0,0,1,368,400Zm96-48H434.918a67.982,67.982,0,0,0-133.836,0H202.918a67.982,67.982,0,0,0-133.836,0H48V240.026l330.526.529L464,253.724Z" class="ci-primary"/> </g>
</svg>